<svg width="30" height="30" viewBox="0 0 30 30" fill="none" xmlns="http://www.w3.org/2000/svg">
<path d="M15.0001 0.303833C6.89637 0.303833 0.303329 6.89687 0.303329 15.0006C0.303329 23.1038 6.89637 29.6969 15.0001 29.6969C23.1039 29.6969 29.6969 23.1038 29.6969 15.0006C29.6969 6.89687 23.1039 0.303833 15.0001 0.303833ZM28.3624 11.2078C28.3624 11.2078 27.4271 11.8024 26.8378 12.5856C26.2581 11.9637 24.7983 10.5537 22.6094 9.46455C22.6094 9.46455 22.2869 8.2024 21.9023 7.28205C21.5048 6.33276 20.7773 5.08455 20.7773 5.08455C22.3758 3.2358 22.3758 3.2358 22.3758 3.2358C25.2489 5.0433 27.4137 7.8708 28.3624 11.2078ZM26.3937 13.3035C26.6465 16.3169 26.1124 18.8862 26.1124 18.8862C25.5987 19.3045 23.6465 20.8303 21.6789 21.5835L18.0874 18.6745L18.374 12.6467C18.374 12.6467 20.9101 11.3835 22.3126 10.2237C24.5664 11.361 26.0187 12.8824 26.3937 13.3035ZM21.6419 2.80133C21.6419 2.80133 21.6419 2.80133 20.0873 4.64312C17.5833 3.93383 14.8233 4.06187 14.8233 4.06187C13.8751 3.16401 12.4758 2.4333 11.6862 2.16919L12.2883 1.37526C13.1658 1.20062 14.0723 1.1074 15.0001 1.1074C17.4044 1.1074 19.6678 1.72187 21.6419 2.80133ZM5.93369 24.5004C5.6594 24.0065 4.26012 21.3895 4.14226 19.3517C4.14226 19.3517 5.96476 18.817 6.85726 18.2353C8.54851 20.4745 11.3069 21.7131 12.0783 22.026C12.3821 24.1742 13.0571 25.8285 13.0571 25.8285C12.0601 26.6047 10.7771 27.0194 10.3394 27.1447C10.3394 27.1447 8.1194 26.2501 5.93369 24.5004ZM11.0573 2.82383C11.5426 2.96151 13.1889 3.67455 14.1708 4.55044C13.1637 6.54544 12.8106 8.99258 12.8106 8.99258C12.0435 9.20419 9.47208 10.0024 7.20601 11.7028C5.97279 10.8065 4.53815 10.2772 4.53815 10.2772C4.63404 9.53365 5.03529 7.27669 6.5069 5.22544C8.22547 4.11812 11.0573 2.82383 11.0573 2.82383ZM12.3928 21.277C11.691 20.9883 8.94869 19.7588 7.40529 17.6133C7.40529 17.6133 7.33833 14.8662 7.63886 12.3922C9.82244 10.7363 12.4019 9.9483 13.0651 9.76508C13.0651 9.76508 14.6369 11.1606 17.5624 12.6295L17.2774 18.6129L12.3928 21.277ZM5.2769 5.08937L5.56565 5.16276C4.05065 7.49526 3.75494 9.89955 3.7094 10.3865C3.7094 10.3865 2.80672 11.5951 2.18101 12.8037C1.89065 13.3645 1.38976 14.7076 1.38976 14.7076C1.31208 14.6776 1.21726 14.6481 1.11708 14.6181C1.21779 10.8928 2.79065 7.52901 5.2769 5.08937ZM1.11869 15.4731C1.17976 15.4972 1.23387 15.5192 1.27083 15.5369C1.27083 15.5369 2.06422 17.5115 3.32315 19.199C3.36869 21.2412 4.61422 23.7612 5.09529 24.6595L5.05351 24.6869C2.71672 22.2879 1.23922 19.0506 1.11869 15.4731ZM10.6849 28.2033V27.8894C11.2769 27.7115 12.599 27.246 13.6496 26.392C15.9098 26.8742 18.6681 26.6503 18.6681 26.6503C19.0833 27.0563 19.5167 27.5363 19.9105 27.9938C18.3826 28.5735 16.7283 28.8928 14.9996 28.8928C13.4937 28.8933 12.044 28.6495 10.6849 28.2033ZM20.6974 27.667C20.2882 27.1828 19.8248 26.6583 19.3646 26.197C20.8871 24.6204 21.8728 22.379 21.8728 22.379C23.8373 21.651 25.7385 20.2254 26.4649 19.6458C27.0928 20.1901 27.5771 20.894 27.5771 20.894C26.1676 23.8897 23.7183 26.3026 20.6974 27.667Z" fill="black"/>
</svg>
