<svg width="16" height="16" viewBox="0 0 16 16" fill="none" xmlns="http://www.w3.org/2000/svg">
<path d="M8.00002 0C4.93847 0 2.44775 2.49108 2.44775 5.55271C2.44775 8.4998 7.48542 15.3852 7.69992 15.6768L7.90011 15.9493C7.92352 15.9813 7.9608 16 8.00002 16C8.03985 16 8.07689 15.9813 8.10054 15.9493L8.30061 15.6768C8.51523 15.3852 13.5528 8.4998 13.5528 5.55271C13.5528 2.49108 11.0617 0 8.00002 0ZM8.00002 3.56374C9.09699 3.56374 9.98899 4.45579 9.98899 5.55271C9.98899 6.64907 9.09695 7.54169 8.00002 7.54169C6.9037 7.54169 6.01105 6.64907 6.01105 5.55271C6.01105 4.45579 6.90366 3.56374 8.00002 3.56374Z" fill="black"/>
</svg>
