<svg width="16" height="16" viewBox="0 0 16 16" fill="none" xmlns="http://www.w3.org/2000/svg">
<path d="M7.72059 0.498047C6.91849 0.626767 6.1492 1.37231 5.55675 2.60207C5.42932 2.86656 5.31408 3.15734 5.20608 3.46099C5.9883 3.60905 6.83402 3.69651 7.72059 3.7105V0.498047ZM8.21863 0.498545V3.71051C9.10512 3.69642 9.95092 3.60876 10.7331 3.46052C10.6253 3.15705 10.5098 2.86642 10.3825 2.60208C9.79041 1.37309 9.02048 0.62799 8.21863 0.498545ZM6.3432 0.655641C4.92924 0.969399 3.66576 1.68182 2.67843 2.67212C3.26662 2.95044 3.95145 3.1843 4.71242 3.35935C4.83236 3.01586 4.96272 2.68733 5.10784 2.38613C5.4518 1.67216 5.86866 1.07651 6.3432 0.655641V0.655641ZM9.59553 0.655641C10.0704 1.07649 10.4875 1.67228 10.8314 2.38613C10.9764 2.68704 11.1066 3.01525 11.2263 3.35838C11.9866 3.18332 12.6711 2.95014 13.2588 2.67212C12.2718 1.68216 11.009 0.969465 9.59553 0.655641V0.655641ZM2.32338 3.05635C1.23382 4.31299 0.556099 5.93672 0.498047 7.71963H3.99503C4.01639 6.30044 4.21817 4.97829 4.55872 3.83745C3.72458 3.64254 2.97023 3.37826 2.32338 3.05635ZM11.38 3.83753C11.7201 4.97837 11.921 6.30103 11.9423 7.72019H15.4392C15.3812 5.93763 14.704 4.31392 13.6149 3.05739C12.9682 3.37921 12.2138 3.64276 11.38 3.83753V3.83753ZM5.04849 3.94161C4.71756 5.03886 4.51589 6.33091 4.49404 7.72019H7.72059V4.21056C6.77919 4.19639 5.88072 4.10299 5.04849 3.9416V3.94161ZM8.21863 4.21057V7.72015H11.4437C11.422 6.33089 11.2212 5.03883 10.8907 3.94159C10.0587 4.10293 9.15998 4.19631 8.21863 4.21057ZM0.498047 8.21773C0.556117 10 1.23351 11.6231 2.32241 12.8796C2.96906 12.5578 3.72502 12.2947 4.55872 12.0999C4.21822 10.9591 4.01638 9.63681 3.99503 8.21773H0.498047ZM4.49404 8.21773C4.51587 9.60682 4.71764 10.8982 5.04849 11.9953C5.88053 11.834 6.77916 11.741 7.72059 11.7269V8.21773H4.49404ZM8.21863 8.21773V11.7269C9.16023 11.7411 10.0586 11.8348 10.8907 11.9963C11.2212 10.899 11.422 9.60718 11.4437 8.21773H8.21863ZM11.9423 8.21773C11.921 9.63708 11.7201 10.9594 11.38 12.1004C12.2134 12.2953 12.968 12.5592 13.6144 12.881C14.7039 11.6244 15.3812 10.0007 15.4392 8.21773H11.9423ZM7.72059 12.2269C6.83404 12.2408 5.98836 12.328 5.20608 12.4759C5.31413 12.7797 5.42927 13.0707 5.55675 13.3353C6.1492 14.565 6.91849 15.3106 7.72059 15.4393V12.2269ZM8.21863 12.2269V15.4388C9.02048 15.3094 9.79041 14.5643 10.3825 13.3353C10.5098 13.0709 10.6253 12.7803 10.7331 12.4768C9.95096 12.3286 9.10498 12.241 8.21863 12.2269ZM4.71242 12.578C3.95147 12.7529 3.26559 12.986 2.67746 13.2643C3.66494 14.2551 4.92877 14.9679 6.3432 15.2817C5.86866 14.8609 5.4518 14.2652 5.10784 13.5512C4.96269 13.2499 4.83239 12.9216 4.71242 12.578V12.578ZM11.2263 12.579C11.1066 12.9222 10.9764 13.2504 10.8314 13.5513C10.4875 14.2651 10.0704 14.8609 9.59553 15.2818C11.009 14.968 12.2718 14.2553 13.2588 13.2653C12.6712 12.9874 11.9865 12.7541 11.2263 12.5791V12.579Z" fill="black"/>
</svg>
